<svg width="234" height="42" viewBox="0 0 234 42" fill="none" xmlns="http://www.w3.org/2000/svg">
<path d="M205.707 34.7071C206.098 34.3166 206.098 33.6834 205.707 33.2929L199.343 26.9289C198.953 26.5384 198.319 26.5384 197.929 26.9289C197.538 27.3195 197.538 27.9526 197.929 28.3431L203.586 34L197.929 39.6569C197.538 40.0474 197.538 40.6805 197.929 41.0711C198.319 41.4616 198.953 41.4616 199.343 41.0711L205.707 34.7071ZM62 35H205V33H62V35Z" fill="#FFF9F9"/>
<path d="M63.7468 21V10.8182H67.033C67.7556 10.8182 68.3588 10.9491 68.8427 11.2109C69.3299 11.4695 69.6961 11.8291 69.9414 12.2898C70.19 12.7472 70.3143 13.2725 70.3143 13.8658C70.3143 14.459 70.19 14.9827 69.9414 15.4368C69.6961 15.8909 69.3316 16.2455 68.8477 16.5007C68.3638 16.7559 67.7638 16.8835 67.0479 16.8835H64.2489V16.0334H67.0231C67.5534 16.0334 67.9942 15.9455 68.3455 15.7699C68.7002 15.5942 68.9637 15.344 69.136 15.0192C69.3117 14.6944 69.3995 14.3099 69.3995 13.8658C69.3995 13.4216 69.3117 13.0339 69.136 12.7024C68.9603 12.3677 68.6952 12.1091 68.3406 11.9268C67.9892 11.7446 67.5451 11.6534 67.0082 11.6534H64.6765V21H63.7468ZM68.2362 16.4062L70.7418 21H69.668L67.1871 16.4062H68.2362ZM75.4002 21.1591C74.6876 21.1591 74.0711 20.9934 73.5508 20.6619C73.0304 20.3272 72.6277 19.8648 72.3427 19.2749C72.061 18.6816 71.9201 17.9988 71.9201 17.2266C71.9201 16.4576 72.061 15.7749 72.3427 15.1783C72.6277 14.5784 73.0205 14.1094 73.521 13.7713C74.0247 13.4299 74.6064 13.2592 75.266 13.2592C75.6803 13.2592 76.0797 13.3355 76.4641 13.4879C76.8486 13.6371 77.1933 13.8674 77.4982 14.179C77.8065 14.4872 78.0501 14.8767 78.229 15.3473C78.408 15.8146 78.4975 16.3681 78.4975 17.0078V17.4453H72.5316V16.6648H77.5927C77.5927 16.1742 77.4933 15.7334 77.2944 15.3423C77.0988 14.9479 76.8254 14.6364 76.4741 14.4077C76.1261 14.179 75.7234 14.0646 75.266 14.0646C74.7821 14.0646 74.3562 14.1939 73.9883 14.4524C73.6204 14.7109 73.332 15.0523 73.1232 15.4766C72.9177 15.9008 72.8133 16.3648 72.81 16.8686V17.3359C72.81 17.9425 72.9144 18.4728 73.1232 18.9268C73.3353 19.3776 73.6353 19.7273 74.0231 19.9759C74.4109 20.2244 74.8699 20.3487 75.4002 20.3487C75.7615 20.3487 76.078 20.2924 76.3498 20.1797C76.6249 20.067 76.8552 19.9162 77.0408 19.7273C77.2298 19.535 77.3723 19.3246 77.4684 19.0959L78.3086 19.3693C78.1926 19.6908 78.002 19.9875 77.7369 20.2592C77.475 20.531 77.1469 20.7498 76.7525 20.9155C76.3614 21.0779 75.9106 21.1591 75.4002 21.1591ZM80.4476 23.8636V13.3636H81.3077V14.8203H81.4121C81.5182 14.5916 81.664 14.358 81.8496 14.1193C82.0352 13.8774 82.2805 13.6735 82.5854 13.5078C82.8936 13.3421 83.2814 13.2592 83.7488 13.2592C84.3785 13.2592 84.9287 13.425 85.3993 13.7564C85.8733 14.0845 86.2412 14.5452 86.503 15.1385C86.7682 15.7285 86.9007 16.4162 86.9007 17.2017C86.9007 17.9905 86.7682 18.6816 86.503 19.2749C86.2412 19.8681 85.8733 20.3305 85.3993 20.6619C84.9287 20.9934 84.3818 21.1591 83.7587 21.1591C83.298 21.1591 82.9119 21.0762 82.6003 20.9105C82.2921 20.7448 82.0418 20.541 81.8496 20.299C81.6607 20.0537 81.5149 19.8151 81.4121 19.5831H81.3326V23.8636H80.4476ZM81.3226 17.1868C81.3226 17.8033 81.4138 18.3501 81.5961 18.8274C81.7817 19.3014 82.0468 19.6742 82.3915 19.946C82.7395 20.2145 83.1605 20.3487 83.6543 20.3487C84.1614 20.3487 84.589 20.2095 84.937 19.9311C85.2883 19.6494 85.5551 19.2699 85.7374 18.7926C85.923 18.3153 86.0158 17.7801 86.0158 17.1868C86.0158 16.6001 85.9247 16.0715 85.7424 15.6009C85.5634 15.1302 85.2982 14.7573 84.9469 14.4822C84.5956 14.2038 84.1647 14.0646 83.6543 14.0646C83.1571 14.0646 82.7346 14.1989 82.3865 14.4673C82.0385 14.7325 81.7734 15.1004 81.5911 15.571C81.4121 16.0384 81.3226 16.5769 81.3226 17.1868ZM91.8102 21.1591C91.1506 21.1591 90.5673 20.9917 90.0602 20.657C89.5564 20.3222 89.162 19.8598 88.877 19.2699C88.5919 18.6766 88.4494 17.9922 88.4494 17.2166C88.4494 16.4344 88.5919 15.7467 88.877 15.1534C89.162 14.5568 89.5564 14.0928 90.0602 13.7614C90.5673 13.4266 91.1506 13.2592 91.8102 13.2592C92.4698 13.2592 93.0514 13.4266 93.5552 13.7614C94.059 14.0961 94.4534 14.5601 94.7385 15.1534C95.0268 15.7467 95.171 16.4344 95.171 17.2166C95.171 17.9922 95.0285 18.6766 94.7434 19.2699C94.4584 19.8598 94.0623 20.3222 93.5552 20.657C93.0514 20.9917 92.4698 21.1591 91.8102 21.1591ZM91.8102 20.3487C92.3405 20.3487 92.7896 20.2062 93.1575 19.9212C93.5254 19.6361 93.8038 19.2566 93.9927 18.7827C94.185 18.3087 94.2811 17.7867 94.2811 17.2166C94.2811 16.6465 94.185 16.1229 93.9927 15.6456C93.8038 15.1683 93.5254 14.7855 93.1575 14.4972C92.7896 14.2088 92.3405 14.0646 91.8102 14.0646C91.2832 14.0646 90.8341 14.2088 90.4629 14.4972C90.095 14.7855 89.8149 15.1683 89.6227 15.6456C89.4338 16.1229 89.3393 16.6465 89.3393 17.2166C89.3393 17.7867 89.4338 18.3087 89.6227 18.7827C89.8149 19.2566 90.095 19.6361 90.4629 19.9212C90.8308 20.2062 91.2799 20.3487 91.8102 20.3487ZM102.244 15.0391L101.434 15.2678C101.354 15.0391 101.242 14.8319 101.096 14.6463C100.95 14.4607 100.759 14.3132 100.524 14.2038C100.292 14.0945 100.004 14.0398 99.6591 14.0398C99.142 14.0398 98.7178 14.1624 98.3864 14.4077C98.0549 14.6529 97.8892 14.9695 97.8892 15.3572C97.8892 15.6854 98.0019 15.9522 98.2273 16.1577C98.456 16.3598 98.8073 16.5206 99.2812 16.6399L100.435 16.9233C101.074 17.0791 101.553 17.326 101.871 17.6641C102.193 18.0021 102.354 18.4264 102.354 18.9368C102.354 19.3677 102.234 19.7505 101.996 20.0852C101.757 20.42 101.424 20.6835 100.996 20.8757C100.572 21.0646 100.08 21.1591 99.5199 21.1591C98.7741 21.1591 98.1593 20.9917 97.6754 20.657C97.1915 20.3189 96.8816 19.8317 96.7457 19.1953L97.5959 18.9865C97.7053 19.4406 97.919 19.7836 98.2372 20.0156C98.5587 20.2476 98.9813 20.3636 99.505 20.3636C100.092 20.3636 100.561 20.2327 100.912 19.9709C101.263 19.7057 101.439 19.3743 101.439 18.9766C101.439 18.6683 101.336 18.4098 101.131 18.201C100.925 17.9889 100.614 17.8331 100.196 17.7337L98.9482 17.4354C98.2853 17.2763 97.7947 17.0244 97.4766 16.6797C97.1584 16.335 96.9993 15.9074 96.9993 15.397C96.9993 14.9761 97.1136 14.6065 97.3423 14.2884C97.571 13.9669 97.8859 13.715 98.2869 13.5327C98.688 13.3504 99.1454 13.2592 99.6591 13.2592C100.358 13.2592 100.917 13.4183 101.335 13.7365C101.755 14.0514 102.059 14.4856 102.244 15.0391ZM104.301 21V13.3636H105.191V21H104.301ZM104.754 12.0511C104.571 12.0511 104.416 11.9898 104.286 11.8672C104.157 11.7412 104.093 11.5904 104.093 11.4148C104.093 11.2391 104.157 11.09 104.286 10.9673C104.416 10.8414 104.571 10.7784 104.754 10.7784C104.936 10.7784 105.092 10.8414 105.221 10.9673C105.35 11.09 105.415 11.2391 105.415 11.4148C105.415 11.5904 105.35 11.7412 105.221 11.8672C105.092 11.9898 104.936 12.0511 104.754 12.0511ZM110.539 13.3636V14.1342H106.895V13.3636H110.539ZM108.034 11.5341H108.924V19.0064C108.924 19.3246 108.978 19.5748 109.088 19.7571C109.197 19.9361 109.34 20.0637 109.515 20.1399C109.691 20.2128 109.878 20.2493 110.077 20.2493C110.193 20.2493 110.292 20.2427 110.375 20.2294C110.458 20.2128 110.531 20.1963 110.594 20.1797L110.783 20.9801C110.697 21.0133 110.591 21.0431 110.465 21.0696C110.339 21.0994 110.183 21.1143 109.998 21.1143C109.673 21.1143 109.359 21.0431 109.058 20.9006C108.76 20.758 108.514 20.5459 108.322 20.2642C108.13 19.9825 108.034 19.6328 108.034 19.2152V11.5341ZM115.435 21.1591C114.776 21.1591 114.192 20.9917 113.685 20.657C113.181 20.3222 112.787 19.8598 112.502 19.2699C112.217 18.6766 112.074 17.9922 112.074 17.2166C112.074 16.4344 112.217 15.7467 112.502 15.1534C112.787 14.5568 113.181 14.0928 113.685 13.7614C114.192 13.4266 114.776 13.2592 115.435 13.2592C116.095 13.2592 116.676 13.4266 117.18 13.7614C117.684 14.0961 118.078 14.5601 118.363 15.1534C118.652 15.7467 118.796 16.4344 118.796 17.2166C118.796 17.9922 118.653 18.6766 118.368 19.2699C118.083 19.8598 117.687 20.3222 117.18 20.657C116.676 20.9917 116.095 21.1591 115.435 21.1591ZM115.435 20.3487C115.965 20.3487 116.415 20.2062 116.782 19.9212C117.15 19.6361 117.429 19.2566 117.618 18.7827C117.81 18.3087 117.906 17.7867 117.906 17.2166C117.906 16.6465 117.81 16.1229 117.618 15.6456C117.429 15.1683 117.15 14.7855 116.782 14.4972C116.415 14.2088 115.965 14.0646 115.435 14.0646C114.908 14.0646 114.459 14.2088 114.088 14.4972C113.72 14.7855 113.44 15.1683 113.248 15.6456C113.059 16.1229 112.964 16.6465 112.964 17.2166C112.964 17.7867 113.059 18.3087 113.248 18.7827C113.44 19.2566 113.72 19.6361 114.088 19.9212C114.456 20.2062 114.905 20.3487 115.435 20.3487ZM115.023 12.3047L116.295 10.0476H117.344L115.818 12.3047H115.023ZM120.739 21V13.3636H121.599V14.5369H121.663C121.816 14.1525 122.081 13.8426 122.459 13.6072C122.84 13.3686 123.271 13.2493 123.751 13.2493C123.824 13.2493 123.906 13.2509 123.995 13.2543C124.085 13.2576 124.159 13.2609 124.219 13.2642V14.1641C124.179 14.1574 124.109 14.1475 124.01 14.1342C123.911 14.121 123.803 14.1143 123.687 14.1143C123.289 14.1143 122.934 14.1989 122.623 14.3679C122.315 14.5336 122.071 14.764 121.892 15.0589C121.713 15.3539 121.624 15.6903 121.624 16.0682V21H120.739ZM125.739 21V13.3636H126.629V21H125.739ZM126.191 12.0511C126.009 12.0511 125.853 11.9898 125.724 11.8672C125.595 11.7412 125.53 11.5904 125.53 11.4148C125.53 11.2391 125.595 11.09 125.724 10.9673C125.853 10.8414 126.009 10.7784 126.191 10.7784C126.374 10.7784 126.529 10.8414 126.659 10.9673C126.788 11.09 126.852 11.2391 126.852 11.4148C126.852 11.5904 126.788 11.7412 126.659 11.8672C126.529 11.9898 126.374 12.0511 126.191 12.0511ZM131.937 21.1591C131.278 21.1591 130.694 20.9917 130.187 20.657C129.683 20.3222 129.289 19.8598 129.004 19.2699C128.719 18.6766 128.576 17.9922 128.576 17.2166C128.576 16.4344 128.719 15.7467 129.004 15.1534C129.289 14.5568 129.683 14.0928 130.187 13.7614C130.694 13.4266 131.278 13.2592 131.937 13.2592C132.597 13.2592 133.178 13.4266 133.682 13.7614C134.186 14.0961 134.58 14.5601 134.865 15.1534C135.154 15.7467 135.298 16.4344 135.298 17.2166C135.298 17.9922 135.155 18.6766 134.87 19.2699C134.585 19.8598 134.189 20.3222 133.682 20.657C133.178 20.9917 132.597 21.1591 131.937 21.1591ZM131.937 20.3487C132.467 20.3487 132.917 20.2062 133.284 19.9212C133.652 19.6361 133.931 19.2566 134.12 18.7827C134.312 18.3087 134.408 17.7867 134.408 17.2166C134.408 16.6465 134.312 16.1229 134.12 15.6456C133.931 15.1683 133.652 14.7855 133.284 14.4972C132.917 14.2088 132.467 14.0646 131.937 14.0646C131.41 14.0646 130.961 14.2088 130.59 14.4972C130.222 14.7855 129.942 15.1683 129.75 15.6456C129.561 16.1229 129.466 16.6465 129.466 17.2166C129.466 17.7867 129.561 18.3087 129.75 18.7827C129.942 19.2566 130.222 19.6361 130.59 19.9212C130.958 20.2062 131.407 20.3487 131.937 20.3487ZM142.063 16.2273V21H141.178V13.3636H142.038V14.5618H142.118C142.297 14.1707 142.575 13.8575 142.953 13.6222C143.334 13.3835 143.805 13.2642 144.365 13.2642C144.879 13.2642 145.329 13.3719 145.717 13.5874C146.108 13.7995 146.412 14.1127 146.627 14.527C146.846 14.9413 146.955 15.45 146.955 16.0533V21H146.07V16.108C146.07 15.4815 145.894 14.986 145.543 14.6214C145.195 14.2569 144.728 14.0746 144.141 14.0746C143.74 14.0746 143.384 14.1607 143.072 14.3331C142.761 14.5054 142.514 14.754 142.331 15.0788C142.153 15.4003 142.063 15.7831 142.063 16.2273ZM152.254 21.1591C151.594 21.1591 151.011 20.9917 150.504 20.657C150 20.3222 149.605 19.8598 149.32 19.2699C149.035 18.6766 148.893 17.9922 148.893 17.2166C148.893 16.4344 149.035 15.7467 149.32 15.1534C149.605 14.5568 150 14.0928 150.504 13.7614C151.011 13.4266 151.594 13.2592 152.254 13.2592C152.913 13.2592 153.495 13.4266 153.999 13.7614C154.502 14.0961 154.897 14.5601 155.182 15.1534C155.47 15.7467 155.614 16.4344 155.614 17.2166C155.614 17.9922 155.472 18.6766 155.187 19.2699C154.902 19.8598 154.506 20.3222 153.999 20.657C153.495 20.9917 152.913 21.1591 152.254 21.1591ZM152.254 20.3487C152.784 20.3487 153.233 20.2062 153.601 19.9212C153.969 19.6361 154.247 19.2566 154.436 18.7827C154.628 18.3087 154.724 17.7867 154.724 17.2166C154.724 16.6465 154.628 16.1229 154.436 15.6456C154.247 15.1683 153.969 14.7855 153.601 14.4972C153.233 14.2088 152.784 14.0646 152.254 14.0646C151.727 14.0646 151.277 14.2088 150.906 14.4972C150.538 14.7855 150.258 15.1683 150.066 15.6456C149.877 16.1229 149.783 16.6465 149.783 17.2166C149.783 17.7867 149.877 18.3087 150.066 18.7827C150.258 19.2566 150.538 19.6361 150.906 19.9212C151.274 20.2062 151.723 20.3487 152.254 20.3487ZM168.723 14C168.63 13.6619 168.494 13.3454 168.316 13.0504C168.137 12.7521 167.914 12.492 167.649 12.2699C167.387 12.0445 167.084 11.8688 166.74 11.7429C166.398 11.617 166.017 11.554 165.596 11.554C164.933 11.554 164.34 11.7263 163.816 12.071C163.293 12.4157 162.878 12.9129 162.573 13.5625C162.272 14.2121 162.121 14.9943 162.121 15.9091C162.121 16.8205 162.273 17.6011 162.578 18.2507C162.883 18.9003 163.301 19.3991 163.831 19.7472C164.365 20.0919 164.975 20.2642 165.661 20.2642C166.287 20.2642 166.841 20.125 167.321 19.8466C167.802 19.5682 168.176 19.1705 168.445 18.6534C168.717 18.1364 168.849 17.5215 168.843 16.8089L169.141 16.9034H165.879V16.0682H169.747V16.9034C169.747 17.7718 169.572 18.5225 169.22 19.1555C168.869 19.7886 168.387 20.2775 167.774 20.6222C167.16 20.9669 166.456 21.1392 165.661 21.1392C164.772 21.1392 163.995 20.9254 163.329 20.4979C162.663 20.067 162.144 19.4605 161.773 18.6783C161.405 17.8928 161.221 16.9697 161.221 15.9091C161.221 15.1103 161.327 14.3894 161.539 13.7464C161.751 13.1035 162.051 12.5533 162.439 12.0959C162.83 11.6385 163.293 11.2888 163.826 11.0469C164.36 10.8016 164.95 10.679 165.596 10.679C166.153 10.679 166.662 10.7668 167.122 10.9425C167.586 11.1181 167.994 11.3601 168.345 11.6683C168.7 11.9732 168.99 12.3262 169.215 12.7273C169.444 13.125 169.598 13.5492 169.678 14H168.723ZM172.36 21V13.3636H173.25V21H172.36ZM172.812 12.0511C172.63 12.0511 172.474 11.9898 172.345 11.8672C172.216 11.7412 172.151 11.5904 172.151 11.4148C172.151 11.2391 172.216 11.09 172.345 10.9673C172.474 10.8414 172.63 10.7784 172.812 10.7784C172.995 10.7784 173.15 10.8414 173.28 10.9673C173.409 11.09 173.474 11.2391 173.474 11.4148C173.474 11.5904 173.409 11.7412 173.28 11.8672C173.15 11.9898 172.995 12.0511 172.812 12.0511ZM178.598 13.3636V14.1342H174.954V13.3636H178.598ZM176.092 11.5341H176.982V19.0064C176.982 19.3246 177.037 19.5748 177.146 19.7571C177.256 19.9361 177.398 20.0637 177.574 20.1399C177.75 20.2128 177.937 20.2493 178.136 20.2493C178.252 20.2493 178.351 20.2427 178.434 20.2294C178.517 20.2128 178.59 20.1963 178.653 20.1797L178.842 20.9801C178.755 21.0133 178.649 21.0431 178.523 21.0696C178.397 21.0994 178.242 21.1143 178.056 21.1143C177.731 21.1143 177.418 21.0431 177.116 20.9006C176.818 20.758 176.573 20.5459 176.381 20.2642C176.188 19.9825 176.092 19.6328 176.092 19.2152V11.5341ZM180.956 21V10.8182H181.885V15.4865H187.662V10.8182H188.592V21H187.662V16.3217H181.885V21H180.956ZM195.96 18.0817V13.3636H196.845V21H195.96V19.7322H195.89C195.711 20.1233 195.428 20.4498 195.04 20.7116C194.653 20.9702 194.179 21.0994 193.618 21.0994C193.131 21.0994 192.699 20.9934 192.321 20.7812C191.943 20.5658 191.646 20.2509 191.431 19.8366C191.215 19.4223 191.108 18.9136 191.108 18.3104V13.3636H191.993V18.2557C191.993 18.8523 192.168 19.3329 192.52 19.6974C192.871 20.0587 193.322 20.2393 193.872 20.2393C194.217 20.2393 194.548 20.1565 194.866 19.9908C195.184 19.825 195.446 19.5831 195.652 19.2649C195.857 18.9434 195.96 18.549 195.96 18.0817ZM199.372 21V10.8182H200.262V14.8203H200.341C200.441 14.5916 200.583 14.3563 200.769 14.1143C200.958 13.8724 201.205 13.6702 201.51 13.5078C201.818 13.3421 202.206 13.2592 202.673 13.2592C203.299 13.2592 203.85 13.425 204.324 13.7564C204.797 14.0845 205.167 14.5452 205.432 15.1385C205.697 15.7285 205.83 16.4162 205.83 17.2017C205.83 17.9905 205.697 18.6816 205.432 19.2749C205.17 19.8681 204.802 20.3305 204.328 20.6619C203.858 20.9934 203.311 21.1591 202.688 21.1591C202.224 21.1591 201.836 21.0762 201.525 20.9105C201.216 20.7448 200.968 20.541 200.779 20.299C200.59 20.0537 200.444 19.8151 200.341 19.5831H200.232V21H199.372ZM200.247 17.1868C200.247 17.8033 200.338 18.3501 200.52 18.8274C200.706 19.3014 200.971 19.6742 201.316 19.946C201.664 20.2145 202.085 20.3487 202.578 20.3487C203.086 20.3487 203.515 20.2095 203.866 19.9311C204.217 19.6494 204.484 19.2699 204.667 18.7926C204.849 18.3153 204.94 17.7801 204.94 17.1868C204.94 16.6001 204.849 16.0715 204.667 15.6009C204.488 15.1302 204.222 14.7573 203.871 14.4822C203.52 14.2038 203.089 14.0646 202.578 14.0646C202.081 14.0646 201.659 14.1989 201.311 14.4673C200.966 14.7325 200.703 15.1004 200.52 15.571C200.338 16.0384 200.247 16.5769 200.247 17.1868Z" fill="white"/>
<path fill-rule="evenodd" clip-rule="evenodd" d="M21.5 0C9.62125 0 0 9.42618 0 21.0641C0 30.385 6.15438 38.2577 14.7006 41.0487C15.7756 41.233 16.1788 40.601 16.1788 40.0481C16.1788 39.5478 16.1519 37.889 16.1519 36.1249C10.75 37.0991 9.3525 34.8347 8.9225 33.6499C8.68062 33.0443 7.6325 31.1749 6.71875 30.6746C5.96625 30.2796 4.89125 29.3054 6.69187 29.2791C8.385 29.2528 9.59437 30.8062 9.9975 31.4382C11.9325 34.6241 15.0231 33.7289 16.2594 33.1759C16.4475 31.8068 17.0119 30.8852 17.63 30.3586C12.8463 29.832 7.8475 28.0152 7.8475 19.9582C7.8475 17.6675 8.68062 15.7717 10.0512 14.2973C9.83625 13.7706 9.08375 11.6116 10.2663 8.71527C10.2663 8.71527 12.0669 8.16234 16.1788 10.8743C17.8988 10.4004 19.7263 10.1634 21.5538 10.1634C23.3813 10.1634 25.2088 10.4004 26.9288 10.8743C31.0406 8.13601 32.8413 8.71527 32.8413 8.71527C34.0238 11.6116 33.2713 13.7706 33.0563 14.2973C34.4269 15.7717 35.26 17.6412 35.26 19.9582C35.26 28.0416 30.2344 29.832 25.4506 30.3586C26.23 31.0169 26.9019 32.2807 26.9019 34.2555C26.9019 37.0728 26.875 39.3372 26.875 40.0481C26.875 40.601 27.2781 41.2593 28.3531 41.0487C36.8456 38.2577 43 30.3586 43 21.0641C43 9.42618 33.3787 0 21.5 0Z" fill="#88BB9C"/>
</svg>
