<svg width="160" height="114" viewBox="0 0 160 114" fill="none" xmlns="http://www.w3.org/2000/svg">
<path d="M7.25759 84L3.56299 70.9091H6.11341L8.47208 80.5291H8.59353L11.112 70.9091H13.4323L15.9572 80.5355H16.0722L18.4309 70.9091H20.9813L17.2867 84H14.9472L12.3265 74.8146H12.2242L9.59708 84H7.25759ZM23.0763 84H20.5451L25.1537 70.9091H28.0813L32.6963 84H30.1651L26.6686 73.5938H26.5664L23.0763 84ZM23.1594 78.8672H30.0628V80.772H23.1594V78.8672ZM41.324 74.5078C41.2643 73.9496 41.0129 73.5149 40.5697 73.2038C40.1308 72.8928 39.5598 72.7372 38.8567 72.7372C38.3623 72.7372 37.9383 72.8118 37.5847 72.9609C37.231 73.1101 36.9604 73.3125 36.7729 73.5682C36.5854 73.8239 36.4895 74.1158 36.4852 74.4439C36.4852 74.7166 36.547 74.9531 36.6706 75.1534C36.7984 75.3537 36.971 75.5241 37.1883 75.6648C37.4057 75.8011 37.6464 75.9162 37.9106 76.0099C38.1748 76.1037 38.4412 76.1825 38.7097 76.2464L39.9369 76.5533C40.4312 76.6683 40.9064 76.8239 41.3623 77.0199C41.8226 77.2159 42.2338 77.4631 42.596 77.7614C42.9625 78.0597 43.2523 78.4197 43.4653 78.8416C43.6784 79.2635 43.7849 79.7578 43.7849 80.3246C43.7849 81.0916 43.5889 81.767 43.1969 82.3509C42.8048 82.9304 42.2381 83.3842 41.4966 83.7124C40.7594 84.0362 39.8666 84.1982 38.8183 84.1982C37.7998 84.1982 36.9156 84.0405 36.1656 83.7251C35.4199 83.4098 34.8361 82.9496 34.4142 82.3445C33.9966 81.7393 33.7707 81.0021 33.7366 80.1328H36.0697C36.1038 80.5888 36.2445 80.968 36.4916 81.2706C36.7388 81.5732 37.0605 81.799 37.4568 81.9482C37.8574 82.0973 38.3048 82.1719 38.7991 82.1719C39.3148 82.1719 39.7665 82.0952 40.1543 81.9418C40.5463 81.7841 40.8531 81.5668 41.0747 81.2898C41.2963 81.0085 41.4092 80.6804 41.4135 80.3054C41.4092 79.9645 41.3091 79.6832 41.1131 79.4616C40.917 79.2358 40.6422 79.0483 40.2885 78.8991C39.9391 78.7457 39.53 78.6094 39.0612 78.4901L37.5719 78.1065C36.4937 77.8295 35.6415 77.4098 35.015 76.8473C34.3929 76.2805 34.0818 75.5284 34.0818 74.5909C34.0818 73.8196 34.2906 73.1442 34.7082 72.5646C35.1301 71.9851 35.7033 71.5355 36.4277 71.2159C37.1521 70.892 37.9724 70.7301 38.8886 70.7301C39.8176 70.7301 40.6315 70.892 41.3304 71.2159C42.0335 71.5355 42.5854 71.9808 42.9859 72.5518C43.3865 73.1186 43.5932 73.7706 43.606 74.5078H41.324ZM45.3238 72.897V70.9091H55.7684V72.897H51.7223V84H49.37V72.897H45.3238ZM57.7819 84V70.9091H66.2961V72.897H60.1534V76.451H65.8551V78.4389H60.1534V82.0121H66.3473V84H57.7819Z" fill="white"/>
<path d="M84.3856 75.326H81.995C81.9268 74.9339 81.8011 74.5866 81.6179 74.2841C81.4346 73.9773 81.2066 73.7173 80.9339 73.5043C80.6612 73.2912 80.3501 73.1314 80.0007 73.0249C79.6555 72.9141 79.2826 72.8587 78.8821 72.8587C78.1704 72.8587 77.5397 73.0376 76.99 73.3956C76.4403 73.7493 76.0099 74.2692 75.6988 74.9553C75.3877 75.6371 75.2322 76.4702 75.2322 77.4545C75.2322 78.456 75.3877 79.2997 75.6988 79.9858C76.0142 80.6676 76.4446 81.1832 76.99 81.5327C77.5397 81.8778 78.1683 82.0504 78.8757 82.0504C79.2677 82.0504 79.6342 81.9993 79.9751 81.897C80.3203 81.7905 80.6292 81.6349 80.9019 81.4304C81.1789 81.2259 81.4112 80.9744 81.5987 80.6761C81.7904 80.3778 81.9225 80.0369 81.995 79.6534L84.3856 79.6662C84.2961 80.2884 84.1022 80.8722 83.8039 81.4176C83.5099 81.9631 83.1242 82.4446 82.647 82.8622C82.1697 83.2756 81.6115 83.5994 80.9723 83.8338C80.3331 84.0639 79.6235 84.179 78.8437 84.179C77.6931 84.179 76.6661 83.9126 75.7627 83.38C74.8593 82.8473 74.1477 82.0781 73.6278 81.0724C73.1079 80.0668 72.848 78.8608 72.848 77.4545C72.848 76.044 73.11 74.8381 73.6342 73.8366C74.1583 72.831 74.8721 72.0618 75.7755 71.5291C76.6789 70.9964 77.7017 70.7301 78.8437 70.7301C79.5724 70.7301 80.25 70.8324 80.8764 71.0369C81.5028 71.2415 82.061 71.5419 82.5511 71.9382C83.0411 72.3303 83.4438 72.8118 83.7592 73.3828C84.0788 73.9496 84.2876 74.5973 84.3856 75.326ZM94.8094 70.9091H97.1809V79.4616C97.1809 80.3991 96.9593 81.2237 96.5161 81.9354C96.0772 82.647 95.4593 83.2031 94.6624 83.6037C93.8655 84 92.9344 84.1982 91.8691 84.1982C90.7995 84.1982 89.8663 84 89.0694 83.6037C88.2725 83.2031 87.6546 82.647 87.2157 81.9354C86.7768 81.2237 86.5573 80.3991 86.5573 79.4616V70.9091H88.9288V79.2635C88.9288 79.8089 89.0481 80.2947 89.2867 80.7209C89.5296 81.147 89.8705 81.4815 90.3094 81.7244C90.7484 81.9631 91.2682 82.0824 91.8691 82.0824C92.4699 82.0824 92.9898 81.9631 93.4288 81.7244C93.8719 81.4815 94.2128 81.147 94.4515 80.7209C94.6901 80.2947 94.8094 79.8089 94.8094 79.2635V70.9091ZM99.1832 72.897V70.9091H109.628V72.897H105.582V84H103.229V72.897H99.1832ZM111.066 72.897V70.9091H121.511V72.897H117.464V84H115.112V72.897H111.066ZM123.524 84V70.9091H132.038V72.897H125.896V76.451H131.597V78.4389H125.896V82.0121H132.089V84H123.524ZM134.458 84V70.9091H139.367C140.372 70.9091 141.216 71.0838 141.898 71.4332C142.584 71.7827 143.102 72.2727 143.451 72.9034C143.805 73.5298 143.982 74.2607 143.982 75.0959C143.982 75.9354 143.803 76.6641 143.445 77.282C143.091 77.8956 142.569 78.3707 141.879 78.7074C141.189 79.0398 140.341 79.206 139.335 79.206H135.838V77.2372H139.015C139.603 77.2372 140.085 77.1562 140.46 76.9943C140.835 76.8281 141.112 76.5874 141.291 76.272C141.474 75.9524 141.566 75.5604 141.566 75.0959C141.566 74.6314 141.474 74.2351 141.291 73.907C141.108 73.5746 140.828 73.3232 140.453 73.1527C140.078 72.978 139.595 72.8906 139.002 72.8906H136.829V84H134.458ZM141.22 78.0682L144.461 84H141.815L138.632 78.0682H141.22ZM153.279 74.5078C153.219 73.9496 152.968 73.5149 152.525 73.2038C152.086 72.8928 151.515 72.7372 150.812 72.7372C150.317 72.7372 149.893 72.8118 149.54 72.9609C149.186 73.1101 148.915 73.3125 148.728 73.5682C148.54 73.8239 148.445 74.1158 148.44 74.4439C148.44 74.7166 148.502 74.9531 148.626 75.1534C148.754 75.3537 148.926 75.5241 149.143 75.6648C149.361 75.8011 149.602 75.9162 149.866 76.0099C150.13 76.1037 150.396 76.1825 150.665 76.2464L151.892 76.5533C152.386 76.6683 152.861 76.8239 153.317 77.0199C153.778 77.2159 154.189 77.4631 154.551 77.7614C154.918 78.0597 155.207 78.4197 155.42 78.8416C155.633 79.2635 155.74 79.7578 155.74 80.3246C155.74 81.0916 155.544 81.767 155.152 82.3509C154.76 82.9304 154.193 83.3842 153.452 83.7124C152.714 84.0362 151.822 84.1982 150.773 84.1982C149.755 84.1982 148.871 84.0405 148.121 83.7251C147.375 83.4098 146.791 82.9496 146.369 82.3445C145.952 81.7393 145.726 81.0021 145.692 80.1328H148.025C148.059 80.5888 148.2 80.968 148.447 81.2706C148.694 81.5732 149.016 81.799 149.412 81.9482C149.812 82.0973 150.26 82.1719 150.754 82.1719C151.27 82.1719 151.722 82.0952 152.109 81.9418C152.501 81.7841 152.808 81.5668 153.03 81.2898C153.251 81.0085 153.364 80.6804 153.369 80.3054C153.364 79.9645 153.264 79.6832 153.068 79.4616C152.872 79.2358 152.597 79.0483 152.244 78.8991C151.894 78.7457 151.485 78.6094 151.016 78.4901L149.527 78.1065C148.449 77.8295 147.597 77.4098 146.97 76.8473C146.348 76.2805 146.037 75.5284 146.037 74.5909C146.037 73.8196 146.246 73.1442 146.663 72.5646C147.085 71.9851 147.658 71.5355 148.383 71.2159C149.107 70.892 149.928 70.7301 150.844 70.7301C151.773 70.7301 152.587 70.892 153.285 71.2159C153.989 71.5355 154.54 71.9808 154.941 72.5518C155.342 73.1186 155.548 73.7706 155.561 74.5078H153.279Z" fill="#009039"/>
<rect x="31.4231" y="1.73669" width="59.4307" height="52.4482" fill="#D9D9D9"/>
<path d="M33.1309 1.73669H92.2201L96.1479 4.34174L101.613 11.2885L104.345 15.4566L107.419 24.4874L108.786 32.6499L107.419 43.07L105.37 48.1064L102.979 52.2745L101.101 54.8796H92.2201H33.1309L33.1309 1.73669Z" fill="white"/>
<ellipse cx="24.9336" cy="30.2185" rx="24.9336" ry="30.2185" fill="#00673B"/>
<ellipse cx="25.7877" cy="30.2185" rx="20.6641" ry="26.3978" fill="white"/>
<ellipse cx="25.6168" cy="30.0449" rx="10.2467" ry="14.0672" fill="#00673B"/>
<path d="M30.0571 59.7423L39.2791 57.4846L98.0268 56.6162V57.4846L83.1691 59.7423L65.0666 60.6106H34.4974L30.0571 59.7423Z" fill="white"/>
<rect x="147.552" y="1.38934" width="3.41556" height="55.2269" fill="#009039"/>
<path d="M97.6851 2.43137V1.38935L147.552 1.38935V5.21008H100.93L97.6851 2.43137Z" fill="#009039"/>
<path d="M101.442 5.21008H114.08L119.203 13.3725L136.793 35.6022L147.552 48.6275V56.6163H102.979L104.858 54.5322L107.932 50.0168L111.006 40.6387L111.689 31.9552L111.006 27.6134L109.64 20.8403L104.858 11.1148L101.442 5.21008Z" fill="#009039"/>
</svg>
